# xmcd
#
# Track frame offsets: 
#        150
#        12975
#        25687
#        40042
#        54862
#        70050
#        81937
#        94237
#        106725
#        121387
#        134475
#        147000
#        159787
#        173625
#        189112
#        202312
#
# Disc length: 2891 seconds
#
# Revision: 3
# Processed by: cddbd v1.5.1PL0 Copyright (c) Steve Scherf et al.
# Submitted via: ExactAudioCopy v0.95a5
#
DISCID=c70b4910
DTITLE=The Carter Family - Anchored in Love: Their Complete Victor Rec
DTITLE=ordings 1927-1928
DYEAR=1993
DGENRE=Country
TTITLE0=Keep On the Sunny Side
TTITLE1=The Storms Are On the Ocean
TTITLE2=Wildwood Flower
TTITLE3=Meet Me By the Moonlight Alone
TTITLE4=The Wandering Boy
TTITLE5=River Of Jordan
TTITLE6=I Ain't Goin' To Work Tomorrow
TTITLE7=Anchored In Love
TTITLE8=Little Darling Pal Of Mine
TTITLE9=Bury Me Under the Weeping Willow
TTITLE10=Single Girl, Married Girl
TTITLE11=Little Log Cabin by the Sea
TTITLE12=Chewing Gum
TTITLE13=The Poor Orphan Child
TTITLE14=John Hardy Was a Desperate Little Man
TTITLE15=Will You Miss Me When I'm Gone
EXTD=
EXTT0=
EXTT1=
EXTT2=
EXTT3=
EXTT4=
EXTT5=
EXTT6=
EXTT7=
EXTT8=
EXTT9=
EXTT10=
EXTT11=
EXTT12=
EXTT13=
EXTT14=
EXTT15=
PLAYORDER=
